<svg width="434" height="448" viewBox="0 0 434 448" fill="none" xmlns="http://www.w3.org/2000/svg">
<path d="M317.6 344.322L147.324 82.3264C184.107 57.2093 270.386 41.2821 339.312 141.804C410.616 245.796 352.051 321.76 317.6 344.322Z" stroke="#1F1F1F" stroke-opacity="0.8" stroke-width="6"/>
<path d="M128.061 88.6298L218.648 228.012L205.957 272.073L98.063 106.062C98.063 106.062 104.102 80.3343 128.061 88.6298Z" stroke="#1F1F1F" stroke-opacity="0.8" stroke-width="6"/>
<path d="M247.459 335.93L293.352 342.955L302.838 357.55C305.668 373.886 287.852 387.022 273.783 376.434L247.459 335.93Z" stroke="#1F1F1F" stroke-opacity="0.8" stroke-width="6"/>
<path d="M140.039 376.16C178.816 417.394 234.146 398.388 256.963 383.732L223.762 332.646L190.376 327.355L199.573 295.427L86.6871 121.736C30.9368 161.29 37.8399 213.69 48.2602 234.945L140.039 376.16Z" stroke="#1F1F1F" stroke-opacity="0.8" stroke-width="6"/>
<ellipse cx="6.24037" cy="12.8146" rx="6.24037" ry="12.8146" transform="matrix(0.854465 0.519509 -0.603571 0.797309 203.215 87.0137)" fill="#1F1F1F" fill-opacity="0.7"/>
<ellipse cx="6.56747" cy="12.2378" rx="6.56747" ry="12.2378" transform="matrix(0.988857 0.14887 -0.287988 0.957634 250.029 94.3447)" fill="#1F1F1F" fill-opacity="0.7"/>
<ellipse cx="6.56747" cy="12.2378" rx="6.56747" ry="12.2378" transform="matrix(0.988857 0.14887 -0.287988 0.957634 333.25 171.705)" fill="#1F1F1F" fill-opacity="0.7"/>
<ellipse cx="5.73566" cy="9.96409" rx="5.73566" ry="9.96409" transform="matrix(0.519063 -0.854736 0.911317 0.411705 306.32 228.358)" fill="#1F1F1F" fill-opacity="0.7"/>
<ellipse cx="5.91096" cy="9.59794" rx="5.91096" ry="9.59794" transform="matrix(0.855549 -0.517721 0.508583 0.861013 289.932 267.602)" fill="#1F1F1F" fill-opacity="0.7"/>
<ellipse cx="5.39412" cy="10.6122" rx="5.39412" ry="10.6122" transform="matrix(0.950315 0.31129 -0.435532 0.900173 342.715 267.283)" fill="#1F1F1F" fill-opacity="0.7"/>
<ellipse cx="5.73566" cy="9.96409" rx="5.73566" ry="9.96409" transform="matrix(0.519063 -0.854736 0.911317 0.411705 219.396 149.906)" fill="#1F1F1F" fill-opacity="0.7"/>
<ellipse cx="5.91132" cy="11.2837" rx="5.91132" ry="11.2837" transform="matrix(0.824236 -0.566246 0.573227 0.819397 278.951 142.995)" fill="#1F1F1F" fill-opacity="0.7"/>
<ellipse cx="5.12329" cy="13.019" rx="5.12329" ry="13.019" transform="matrix(-0.560646 -0.828055 0.830678 -0.556754 257.371 211.878)" fill="#1F1F1F" fill-opacity="0.7"/>
</svg>
