<svg width="30" height="30" viewBox="0 0 30 30" fill="none" xmlns="http://www.w3.org/2000/svg">
<circle cx="15" cy="15" r="15" fill="#D9D9D9"/>
<path fill-rule="evenodd" clip-rule="evenodd" d="M14.8824 17.0044L20.1854 22.3074C20.4668 22.5888 20.8485 22.7469 21.2464 22.7469C21.6444 22.7469 22.026 22.5888 22.3074 22.3074C22.5888 22.026 22.7469 21.6444 22.7469 21.2464C22.7469 20.8485 22.5888 20.4668 22.3074 20.1854L17.0024 14.8824L22.3064 9.57943C22.4457 9.4401 22.5561 9.2747 22.6315 9.09268C22.7068 8.91066 22.7456 8.71558 22.7455 8.51858C22.7455 8.32158 22.7067 8.12652 22.6312 7.94453C22.5558 7.76255 22.4452 7.5972 22.3059 7.45793C22.1666 7.31867 22.0012 7.20821 21.8192 7.13286C21.6371 7.05752 21.4421 7.01876 21.2451 7.01881C21.0481 7.01885 20.853 7.0577 20.671 7.13313C20.489 7.20856 20.3237 7.3191 20.1844 7.45843L14.8824 12.7614L9.57942 7.45843C9.44111 7.31511 9.27565 7.20076 9.09268 7.12206C8.90971 7.04336 8.7129 7.00189 8.51374 7.00006C8.31457 6.99824 8.11703 7.0361 7.93265 7.11143C7.74827 7.18677 7.58074 7.29807 7.43984 7.43884C7.29894 7.57961 7.18748 7.74704 7.11197 7.93134C7.03646 8.11565 6.99841 8.31315 7.00005 8.51232C7.00169 8.71149 7.04297 8.90834 7.1215 9.09138C7.20002 9.27443 7.31422 9.44 7.45742 9.57843L12.7624 14.8824L7.45842 20.1864C7.31522 20.3249 7.20102 20.4904 7.1225 20.6735C7.04397 20.8565 7.00269 21.0534 7.00105 21.2525C6.99941 21.4517 7.03746 21.6492 7.11297 21.8335C7.18848 22.0178 7.29993 22.1853 7.44084 22.326C7.58174 22.4668 7.74927 22.5781 7.93365 22.6534C8.11803 22.7288 8.31557 22.7666 8.51474 22.7648C8.7139 22.763 8.91071 22.7215 9.09368 22.6428C9.27665 22.5641 9.44211 22.4498 9.58042 22.3064L14.8824 17.0044Z" fill="#6B7280"/>
</svg>
