<svg width="30" height="29" viewBox="0 0 30 29" fill="none" xmlns="http://www.w3.org/2000/svg">
<path d="M16.542 0.911133C18.2294 0.915232 19.0859 0.92343 19.8253 0.94256L20.1163 0.952125C20.4523 0.963056 20.7838 0.97672 21.1843 0.993117C22.7802 1.06144 23.8691 1.29099 24.8246 1.62849C25.8145 1.97556 26.6485 2.4456 27.4825 3.20395C28.2452 3.887 28.8353 4.71325 29.2119 5.6252C29.5824 6.49559 29.8343 7.4876 29.9093 8.94281C29.9273 9.30627 29.9423 9.60825 29.9543 9.91568L29.9633 10.1808C29.9858 10.853 29.9948 11.6332 29.9978 13.1704L29.9993 14.1898V15.9798C30.003 16.9764 29.9915 17.9731 29.9648 18.9694L29.9558 19.2345C29.9438 19.5419 29.9288 19.8439 29.9108 20.2074C29.8358 21.6626 29.5809 22.6532 29.2119 23.525C28.8364 24.4374 28.2461 25.2639 27.4825 25.9462C26.7324 26.6408 25.8255 27.1784 24.8246 27.5217C23.8691 27.8592 22.7802 28.0888 21.1843 28.1571C20.8284 28.1723 20.4724 28.186 20.1163 28.1981L19.8253 28.2063C19.0859 28.2254 18.2294 28.235 16.542 28.2377L15.4231 28.2391H13.4597C12.3651 28.2425 11.2706 28.232 10.1763 28.2076L9.88536 28.1994C9.52929 28.1871 9.17331 28.173 8.81741 28.1571C7.2215 28.0888 6.13255 27.8592 5.1756 27.5217C4.17466 27.1792 3.26802 26.6415 2.51924 25.9462C1.75584 25.2634 1.16514 24.4371 0.788325 23.525C0.417844 22.6546 0.165857 21.6626 0.0908608 20.2074C0.0741498 19.8832 0.0591505 19.5589 0.0458631 19.2345L0.0383637 18.9694C0.0107232 17.9731 -0.00177754 16.9764 0.000865457 15.9798V13.1704C-0.00332078 12.1738 0.00767983 11.1771 0.0338639 10.1808L0.0443633 9.91568C0.0563627 9.60825 0.0713619 9.30627 0.0893609 8.94281C0.164357 7.4876 0.416344 6.49696 0.786825 5.6252C1.16348 4.71232 1.75536 3.88581 2.52074 3.20395C3.26934 2.5091 4.17537 1.97144 5.1756 1.62849C6.13255 1.29099 7.22 1.06144 8.81741 0.993117C9.21639 0.97672 9.54938 0.963056 9.88536 0.952125L10.1763 0.943926C11.2701 0.919649 12.3641 0.909172 13.4582 0.912499L16.542 0.911133ZM15.0001 7.74311C13.0111 7.74311 11.1035 8.46291 9.69707 9.74416C8.29062 11.0254 7.50048 12.7631 7.50048 14.5751C7.50048 16.387 8.29062 18.1248 9.69707 19.406C11.1035 20.6873 13.0111 21.4071 15.0001 21.4071C16.9891 21.4071 18.8967 20.6873 20.3031 19.406C21.7096 18.1248 22.4997 16.387 22.4997 14.5751C22.4997 12.7631 21.7096 11.0254 20.3031 9.74416C18.8967 8.46291 16.9891 7.74311 15.0001 7.74311ZM15.0001 10.4759C15.591 10.4758 16.1762 10.5818 16.7221 10.7877C17.2681 10.9936 17.7642 11.2955 18.1821 11.676C18.6 12.0566 18.9316 12.5085 19.1578 13.0058C19.384 13.5031 19.5005 14.0361 19.5006 14.5744C19.5007 15.1127 19.3844 15.6458 19.1584 16.1432C18.9323 16.6405 18.601 17.0925 18.1832 17.4732C17.7654 17.8539 17.2694 18.1559 16.7235 18.362C16.1776 18.5681 15.5925 18.6742 15.0016 18.6743C13.8082 18.6743 12.6637 18.2424 11.8198 17.4737C10.9759 16.7049 10.5018 15.6623 10.5018 14.5751C10.5018 13.4879 10.9759 12.4453 11.8198 11.6765C12.6637 10.9078 13.8082 10.4759 15.0016 10.4759M22.8762 5.69352C22.3789 5.69352 21.9021 5.87347 21.5504 6.19378C21.1988 6.51409 21.0013 6.94853 21.0013 7.40152C21.0013 7.8545 21.1988 8.28894 21.5504 8.60925C21.9021 8.92956 22.3789 9.10951 22.8762 9.10951C23.3734 9.10951 23.8503 8.92956 24.202 8.60925C24.5536 8.28894 24.7511 7.8545 24.7511 7.40152C24.7511 6.94853 24.5536 6.51409 24.202 6.19378C23.8503 5.87347 23.3734 5.69352 22.8762 5.69352Z" fill="white"/>
</svg>
