<svg width="18" height="29" viewBox="0 0 18 29" fill="none" xmlns="http://www.w3.org/2000/svg">
<path d="M9 0C6.61305 0 4.32387 0.948211 2.63604 2.63604C0.948211 4.32387 0 6.61305 0 9C0 18 9 28.8 9 28.8C9 28.8 18 18 18 9C18 6.61305 17.0518 4.32387 15.364 2.63604C13.6761 0.948211 11.3869 0 9 0ZM9 14.5134C8.27597 14.5134 7.55903 14.3708 6.89011 14.0937C6.2212 13.8166 5.6134 13.4105 5.10144 12.8986C4.58947 12.3866 4.18336 11.7788 3.90628 11.1099C3.62921 10.441 3.4866 9.72403 3.4866 9C3.4866 8.27597 3.62921 7.55903 3.90628 6.89011C4.18336 6.2212 4.58947 5.6134 5.10144 5.10144C5.6134 4.58947 6.2212 4.18336 6.89011 3.90628C7.55903 3.62921 8.27597 3.4866 9 3.4866C10.4622 3.4866 11.8646 4.06747 12.8986 5.10144C13.9325 6.1354 14.5134 7.53776 14.5134 9C14.5134 10.4622 13.9325 11.8646 12.8986 12.8986C11.8646 13.9325 10.4622 14.5134 9 14.5134ZM5.5134 9C5.5134 8.07482 5.88093 7.18753 6.53513 6.53333C7.18933 5.87913 8.07662 5.5116 9.0018 5.5116C9.92698 5.5116 10.8143 5.87913 11.4685 6.53333C12.1227 7.18753 12.4902 8.07482 12.4902 9C12.4902 9.92518 12.1227 10.8125 11.4685 11.4667C10.8143 12.1209 9.92698 12.4884 9.0018 12.4884C8.07662 12.4884 7.18933 12.1209 6.53513 11.4667C5.88093 10.8125 5.5134 9.92518 5.5134 9Z" fill="#6B7280"/>
</svg>
