<svg width="20" height="30" viewBox="0 0 20 30" fill="none" xmlns="http://www.w3.org/2000/svg">
<path d="M10 0C7.34784 0 4.8043 0.959777 2.92893 2.66819C1.05357 4.37661 0 6.69371 0 9.10977C0 18.2195 10 29.1513 10 29.1513C10 29.1513 20 18.2195 20 9.10977C20 6.69371 18.9464 4.37661 17.0711 2.66819C15.1957 0.959777 12.6522 0 10 0ZM10 14.6904C9.19552 14.6904 8.39892 14.5461 7.65568 14.2656C6.91244 13.9852 6.23711 13.5741 5.66826 13.0559C5.09941 12.5377 4.64817 11.9225 4.34031 11.2454C4.03245 10.5683 3.874 9.84264 3.874 9.10977C3.874 8.37691 4.03245 7.65123 4.34031 6.97415C4.64817 6.29708 5.09941 5.68187 5.66826 5.16366C6.23711 4.64545 6.91244 4.23438 7.65568 3.95393C8.39892 3.67347 9.19552 3.52913 10 3.52913C11.6247 3.52913 13.1829 4.11709 14.3317 5.16366C15.4806 6.21024 16.126 7.62969 16.126 9.10977C16.126 10.5899 15.4806 12.0093 14.3317 13.0559C13.1829 14.1025 11.6247 14.6904 10 14.6904ZM6.126 9.10977C6.126 8.17331 6.53436 7.2752 7.26125 6.61302C7.98815 5.95084 8.97402 5.57883 10.002 5.57883C11.03 5.57883 12.0159 5.95084 12.7427 6.61302C13.4696 7.2752 13.878 8.17331 13.878 9.10977C13.878 10.0462 13.4696 10.9444 12.7427 11.6065C12.0159 12.2687 11.03 12.6407 10.002 12.6407C8.97402 12.6407 7.98815 12.2687 7.26125 11.6065C6.53436 10.9444 6.126 10.0462 6.126 9.10977Z" fill="white"/>
</svg>
