<svg width="20" height="19" viewBox="0 0 20 19" fill="none" xmlns="http://www.w3.org/2000/svg">
<path fill-rule="evenodd" clip-rule="evenodd" d="M2.35676 1.06139C2.57548 0.862451 2.8381 0.708125 3.12724 0.60864C3.41637 0.509155 3.72541 0.466783 4.03389 0.484333C4.34236 0.501882 4.64321 0.578952 4.91651 0.710436C5.18981 0.841919 5.42932 1.02481 5.61916 1.247L7.86284 3.87281C8.27408 4.35447 8.41908 4.98189 8.25658 5.57401L7.57285 8.06773C7.53775 8.1969 7.53978 8.33213 7.57875 8.46038C7.61772 8.58863 7.69232 8.70557 7.79534 8.7999L10.8665 11.5977C10.9702 11.6917 11.0988 11.7598 11.2398 11.7953C11.3808 11.8308 11.5295 11.8325 11.6715 11.8003L14.4076 11.1775C14.7284 11.1048 15.0631 11.0994 15.3866 11.1615C15.71 11.2236 16.0138 11.3517 16.2751 11.5362L19.1575 13.579C20.1937 14.3134 20.2887 15.7083 19.3612 16.5521L18.0688 17.7295C17.1438 18.5721 15.7613 18.9422 14.4726 18.5288C11.1736 17.4728 8.17851 15.7524 5.71041 13.4958C3.23345 11.2478 1.34499 8.51975 0.185583 5.51479C-0.266903 4.34195 0.139334 3.08142 1.06431 2.23879L2.35676 1.06139Z" fill="white"/>
</svg>
