<svg width="30" height="28" viewBox="0 0 30 28" fill="none" xmlns="http://www.w3.org/2000/svg">
<path d="M10.56 26.7008C12 27.097 13.455 27.3293 15 27.3293C18.9782 27.3293 22.7936 25.8897 25.6066 23.327C28.4196 20.7644 30 17.2888 30 13.6647C30 11.8702 29.612 10.0933 28.8582 8.43542C28.1044 6.77755 26.9995 5.27117 25.6066 4.00229C24.2137 2.73341 22.5601 1.72687 20.7403 1.04016C18.9204 0.353447 16.9698 0 15 0C13.0302 0 11.0796 0.353447 9.25975 1.04016C7.43986 1.72687 5.78628 2.73341 4.3934 4.00229C1.58035 6.56491 0 10.0406 0 13.6647C0 19.4721 4.005 24.4597 9.66 26.4275C9.525 25.3616 9.39 23.5989 9.66 22.3827L11.385 15.6324C11.385 15.6324 10.95 14.8398 10.95 13.5827C10.95 11.697 12.24 10.2895 13.71 10.2895C15 10.2895 15.6 11.1504 15.6 12.2572C15.6 13.4324 14.745 15.1131 14.31 16.7255C14.055 18.0647 15.09 19.2398 16.59 19.2398C19.26 19.2398 21.33 16.6436 21.33 12.9814C21.33 9.70191 18.75 7.46091 15.045 7.46091C10.815 7.46091 8.325 10.3305 8.325 13.3504C8.325 14.5255 8.745 15.7144 9.435 16.4932C9.57 16.5752 9.57 16.6846 9.525 16.8895L9.09 18.379C9.09 18.6113 8.925 18.6933 8.67 18.5293C6.75 17.7641 5.64 15.2771 5.64 13.2684C5.64 8.95035 9 5.0286 15.48 5.0286C20.64 5.0286 24.66 8.40377 24.66 12.8858C24.66 17.5864 21.465 21.3579 16.89 21.3579C15.435 21.3579 14.01 20.6473 13.5 19.8138L12.495 23.0523C12.15 24.2274 11.205 25.7989 10.56 26.7417V26.7008Z" fill="white"/>
</svg>
