<svg width="25" height="27" viewBox="0 0 25 27" fill="none" xmlns="http://www.w3.org/2000/svg">
<path d="M19.8342 4.91818C18.7443 3.78472 18.1437 2.32909 18.1441 0.822266H13.2175V18.8327C13.1795 19.8073 12.7278 20.7305 11.9575 21.4078C11.1873 22.0851 10.1586 22.4636 9.08801 22.4638C6.82398 22.4638 4.9426 20.7789 4.9426 18.6874C4.9426 16.1892 7.58929 14.3155 10.3157 15.0853V10.4956C4.81505 9.82746 0 13.72 0 18.6874C0 23.5241 4.40051 26.9664 9.07207 26.9664C14.0784 26.9664 18.1441 23.2626 18.1441 18.6874V9.5515C20.1419 10.8585 22.5404 11.5597 25 11.5559V7.06781C25 7.06781 22.0026 7.19853 19.8342 4.91818Z" fill="white"/>
</svg>
