<svg width="20" height="19" viewBox="0 0 20 19" fill="none" xmlns="http://www.w3.org/2000/svg">
<path fill-rule="evenodd" clip-rule="evenodd" d="M10 0.652344C4.477 0.652344 0 4.73079 0 9.76212C0 11.4839 0.525 13.0963 1.438 14.47L0.546 17.2321C0.494785 17.3907 0.491415 17.5589 0.536244 17.7191C0.581074 17.8793 0.672448 18.0255 0.800759 18.1424C0.929071 18.2593 1.08958 18.3425 1.26542 18.3834C1.44125 18.4242 1.62592 18.4212 1.8 18.3745L4.832 17.5619C6.39068 18.421 8.17822 18.8741 10 18.8719C15.523 18.8719 20 14.7934 20 9.76212C20 4.73079 15.523 0.652344 10 0.652344ZM7.738 11.8237C9.761 13.6657 11.692 13.9089 12.374 13.9317C13.411 13.9663 14.421 13.2448 14.814 12.4076C14.8636 12.3035 14.8816 12.1891 14.8661 12.0764C14.8507 11.9638 14.8023 11.857 14.726 11.7672C14.178 11.1295 13.437 10.6713 12.713 10.2158C12.5618 10.1206 12.3761 10.0824 12.1947 10.1092C12.0133 10.136 11.8503 10.2258 11.74 10.3597L11.14 11.1933C11.1085 11.2381 11.0593 11.2702 11.0026 11.2831C10.9459 11.296 10.8859 11.2886 10.835 11.2625C10.428 11.0502 9.835 10.6895 9.409 10.3014C8.983 9.91334 8.611 9.39773 8.402 9.05064C8.37609 9.00655 8.3686 8.95539 8.38091 8.90665C8.39323 8.85791 8.42453 8.81488 8.469 8.78555L9.393 8.16062C9.52487 8.05617 9.60996 7.91119 9.63209 7.75329C9.65422 7.59538 9.61183 7.43558 9.513 7.3043C9.065 6.7067 8.543 5.94694 7.786 5.44317C7.68831 5.37868 7.57386 5.33847 7.45393 5.32649C7.334 5.31451 7.21271 5.33118 7.102 5.37485C6.182 5.73378 5.386 6.65386 5.424 7.60037C5.449 8.22166 5.716 9.98075 7.738 11.8237Z" fill="white"/>
</svg>
